{
  "accessors": [
    {
      "bufferView": 2,
      "componentType": 5126,
      "count": 466,
      "max": [
        93.1738052368164,
        24.037700653076172,
        20.461299896240234
      ],
      "min": [
        75.81120300292969,
        7.19789981842041,
        1.23989999294281
      ],
      "type": "VEC3"
    },
    {
      "bufferView": 2,
      "byteOffset": 5592,
      "componentType": 5126,
      "count": 466,
      "max": [
        0.9999971389770508,
        0.9999971389770508,
        1.0
      ],
      "min": [
        -0.9999971389770508,
        -0.9999971389770508,
        -0.987339198589325
      ],
      "type": "VEC3"
    },
    {
      "bufferView": 1,
      "componentType": 5126,
      "count": 466,
      "max": [
        0.9735999703407288,
        0.972100019454956
      ],
      "min": [
        0.030799999833106995,
        0.024900000542402267
      ],
      "type": "VEC2"
    },
    {
      "bufferView": 0,
      "componentType": 5125,
      "count": 864,
      "type": "SCALAR"
    },
    {
      "bufferView": 2,
      "byteOffset": 11184,
      "componentType": 5126,
      "count": 1064,
      "max": [
        63.702598571777344,
        22.340900421142578,
        18.817501068115234
      ],
      "min": [
        37.76679992675781,
        9.313699722290039,
        0.0
      ],
      "type": "VEC3"
    },
    {
      "bufferView": 2,
      "byteOffset": 23952,
      "componentType": 5126,
      "count": 1064,
      "max": [
        0.998125433921814,
        0.9999949932098389,
        0.9999994039535522
      ],
      "min": [
        -0.9999959468841553,
        -0.9999991655349731,
        -0.9999200105667114
      ],
      "type": "VEC3"
    },
    {
      "bufferView": 1,
      "byteOffset": 3728,
      "componentType": 5126,
      "count": 1064,
      "max": [
        0.9779999852180481,
        0.9783999919891357
      ],
      "min": [
        0.00930000003427267,
        0.0340999998152256
      ],
      "type": "VEC2"
    },
    {
      "bufferView": 0,
      "byteOffset": 3456,
      "componentType": 5125,
      "count": 2418,
      "type": "SCALAR"
    },
    {
      "bufferView": 2,
      "byteOffset": 36720,
      "componentType": 5126,
      "count": 3390,
      "max": [
        59.542396545410156,
        19.618200302124023,
        96.0866928100586
      ],
      "min": [
        40.16239929199219,
        13.109299659729004,
        60.24510192871094
      ],
      "type": "VEC3"
    },
    {
      "bufferView": 2,
      "byteOffset": 77400,
      "componentType": 5126,
      "count": 3390,
      "max": [
        1.0,
        0.9999020099639893,
        1.0
      ],
      "min": [
        -0.9993189573287964,
        -0.9997542500495911,
        -0.99936842918396
      ],
      "type": "VEC3"
    },
    {
      "bufferView": 1,
      "byteOffset": 12240,
      "componentType": 5126,
      "count": 3390,
      "max": [
        0.9643999934196472,
        0.9735000133514404
      ],
      "min": [
        0.05009999871253967,
        0.04560000076889992
      ],
      "type": "VEC2"
    },
    {
      "bufferView": 0,
      "byteOffset": 13128,
      "componentType": 5125,
      "count": 8520,
      "type": "SCALAR"
    },
    {
      "bufferView": 2,
      "byteOffset": 118080,
      "componentType": 5126,
      "count": 750,
      "max": [
        28.253000259399414,
        25.09589958190918,
        81.74869537353516
      ],
      "min": [
        4.292699813842773,
        2.618999481201172,
        68.73719787597656
      ],
      "type": "VEC3"
    },
    {
      "bufferView": 2,
      "byteOffset": 127080,
      "componentType": 5126,
      "count": 750,
      "max": [
        0.9955559968948364,
        0.9995789527893066,
        0.4350796639919281
      ],
      "min": [
        -0.9976667761802673,
        -0.999835193157196,
        -0.9529542922973633
      ],
      "type": "VEC3"
    },
    {
      "bufferView": 1,
      "byteOffset": 39360,
      "componentType": 5126,
      "count": 750,
      "max": [
        0.9516000151634216,
        0.9912999868392944
      ],
      "min": [
        0.02199999988079071,
        0.020800000056624413
      ],
      "type": "VEC2"
    },
    {
      "bufferView": 0,
      "byteOffset": 47208,
      "componentType": 5125,
      "count": 2880,
      "type": "SCALAR"
    },
    {
      "bufferView": 2,
      "byteOffset": 136080,
      "componentType": 5126,
      "count": 656,
      "max": [
        30.808799743652344,
        21.562599182128906,
        53.79679870605469
      ],
      "min": [
        0.0,
        8.684099197387695,
        1.3011000156402588
      ],
      "type": "VEC3"
    },
    {
      "bufferView": 2,
      "byteOffset": 143952,
      "componentType": 5126,
      "count": 656,
      "max": [
        0.9996741414070129,
        0.9995852112770081,
        0.9999359846115112
      ],
      "min": [
        -0.9998650550842285,
        -0.9997857213020325,
        -0.9993115663528442
      ],
      "type": "VEC3"
    },
    {
      "bufferView": 1,
      "byteOffset": 45360,
      "componentType": 5126,
      "count": 656,
      "max": [
        0.9325000047683716,
        0.9836999773979187
      ],
      "min": [
        0.07819999754428864,
        0.017400000244379044
      ],
      "type": "VEC2"
    },
    {
      "bufferView": 0,
      "byteOffset": 58728,
      "componentType": 5125,
      "count": 1581,
      "type": "SCALAR"
    },
    {
      "bufferView": 2,
      "byteOffset": 151824,
      "componentType": 5126,
      "count": 1111,
      "max": [
        98.36579895019531,
        22.005199432373047,
        51.41450119018555
      ],
      "min": [
        70.14830017089844,
        9.652999877929688,
        29.855100631713867
      ],
      "type": "VEC3"
    },
    {
      "bufferView": 2,
      "byteOffset": 165156,
      "componentType": 5126,
      "count": 1111,
      "max": [
        0.9998361468315125,
        0.999995231628418,
        0.999997615814209
      ],
      "min": [
        -0.998103678226471,
        -0.9999991655349731,
        -0.9999117851257324
      ],
      "type": "VEC3"
    },
    {
      "bufferView": 1,
      "byteOffset": 50608,
      "componentType": 5126,
      "count": 1111,
      "max": [
        0.9923999905586243,
        0.9735999703407288
      ],
      "min": [
        0.04749999940395355,
        0.006899999920278788
      ],
      "type": "VEC2"
    },
    {
      "bufferView": 0,
      "byteOffset": 65052,
      "componentType": 5125,
      "count": 2904,
      "type": "SCALAR"
    },
    {
      "bufferView": 2,
      "byteOffset": 178488,
      "componentType": 5126,
      "count": 1631,
      "max": [
        56.54389953613281,
        21.79509925842285,
        55.49140167236328
      ],
      "min": [
        43.73570251464844,
        9.252599716186523,
        23.834699630737305
      ],
      "type": "VEC3"
    },
    {
      "bufferView": 2,
      "byteOffset": 198060,
      "componentType": 5126,
      "count": 1631,
      "max": [
        0.9999339580535889,
        0.9999978542327881,
        1.0
      ],
      "min": [
        -0.9999339580535889,
        -0.9999978542327881,
        -0.9972761273384094
      ],
      "type": "VEC3"
    },
    {
      "bufferView": 1,
      "byteOffset": 59496,
      "componentType": 5126,
      "count": 1631,
      "max": [
        0.9810000061988831,
        0.9865000247955322
      ],
      "min": [
        0.021400000900030136,
        0.01510000042617321
      ],
      "type": "VEC2"
    },
    {
      "bufferView": 0,
      "byteOffset": 76668,
      "componentType": 5125,
      "count": 4344,
      "type": "SCALAR"
    },
    {
      "bufferView": 2,
      "byteOffset": 217632,
      "componentType": 5126,
      "count": 850,
      "max": [
        99.0665054321289,
        30.17340087890625,
        95.3041000366211
      ],
      "min": [
        74.23619842529297,
        0.0,
        59.745399475097656
      ],
      "type": "VEC3"
    },
    {
      "bufferView": 2,
      "byteOffset": 227832,
      "componentType": 5126,
      "count": 850,
      "max": [
        0.9894891381263733,
        0.9871248602867126,
        0.933984100818634
      ],
      "min": [
        -0.9810705780982971,
        -0.9642685055732727,
        -0.019400333985686302
      ],
      "type": "VEC3"
    },
    {
      "bufferView": 1,
      "byteOffset": 72544,
      "componentType": 5126,
      "count": 850,
      "max": [
        0.9855999946594238,
        0.9918000102043152
      ],
      "min": [
        0.011300000362098217,
        0.005900000222027302
      ],
      "type": "VEC2"
    },
    {
      "bufferView": 0,
      "byteOffset": 94044,
      "componentType": 5125,
      "count": 3744,
      "type": "SCALAR"
    }
  ],
  "asset": {
    "extras": {
      "author": "alexanderrichardknight (https://sketchfab.com/alexanderrichardknight)",
      "license": "CC-BY-4.0 (http://creativecommons.org/licenses/by/4.0/)",
      "source": "https://sketchfab.com/3d-models/cactus-collection-desert-mine-36a5fb36facc43d8988c37b007ef42f0",
      "title": "Cactus Collection - Desert Mine"
    },
    "generator": "Sketchfab-12.66.0",
    "version": "2.0"
  },
  "bufferViews": [
    {
      "buffer": 0,
      "byteLength": 109020,
      "name": "floatBufferViews",
      "target": 34963
    },
    {
      "buffer": 0,
      "byteLength": 79344,
      "byteOffset": 109020,
      "byteStride": 8,
      "name": "floatBufferViews",
      "target": 34962
    },
    {
      "buffer": 0,
      "byteLength": 238032,
      "byteOffset": 188364,
      "byteStride": 12,
      "name": "floatBufferViews",
      "target": 34962
    }
  ],
  "buffers": [
    {
      "byteLength": 426396,
      "uri": "scene.bin"
    }
  ],
  "images": [
    {
      "uri": "textures/Material__47_baseColor.jpeg"
    },
    {
      "uri": "textures/Material__71_baseColor.jpeg"
    },
    {
      "uri": "textures/Material__73_baseColor.jpeg"
    },
    {
      "uri": "textures/flower_69_baseColor.jpeg"
    },
    {
      "uri": "textures/kak_01_46_baseColor.jpeg"
    },
    {
      "uri": "textures/kak_04_45_baseColor.jpeg"
    },
    {
      "uri": "textures/kak_05_23_baseColor.jpeg"
    },
    {
      "uri": "textures/plant_70_baseColor.jpeg"
    }
  ],
  "materials": [
    {
      "doubleSided": true,
      "name": "Material__47",
      "pbrMetallicRoughness": {
        "baseColorTexture": {
          "index": 0
        },
        "metallicFactor": 0.0,
        "roughnessFactor": 0.6
      }
    },
    {
      "doubleSided": true,
      "name": "Material__71",
      "pbrMetallicRoughness": {
        "baseColorTexture": {
          "index": 1
        },
        "metallicFactor": 0.0,
        "roughnessFactor": 0.6
      }
    },
    {
      "doubleSided": true,
      "name": "Material__73",
      "pbrMetallicRoughness": {
        "baseColorTexture": {
          "index": 2
        },
        "metallicFactor": 0.0,
        "roughnessFactor": 0.6
      }
    },
    {
      "doubleSided": true,
      "name": "flower_69",
      "pbrMetallicRoughness": {
        "baseColorTexture": {
          "index": 3
        },
        "metallicFactor": 0.0,
        "roughnessFactor": 0.6
      }
    },
    {
      "doubleSided": true,
      "name": "kak_01_46",
      "pbrMetallicRoughness": {
        "baseColorTexture": {
          "index": 4
        },
        "metallicFactor": 0.0,
        "roughnessFactor": 0.6
      }
    },
    {
      "doubleSided": true,
      "name": "kak_04_45",
      "pbrMetallicRoughness": {
        "baseColorTexture": {
          "index": 5
        },
        "metallicFactor": 0.0,
        "roughnessFactor": 0.6
      }
    },
    {
      "doubleSided": true,
      "name": "kak_05_23",
      "pbrMetallicRoughness": {
        "baseColorTexture": {
          "index": 6
        },
        "metallicFactor": 0.0,
        "roughnessFactor": 0.6
      }
    },
    {
      "doubleSided": true,
      "name": "plant_70",
      "pbrMetallicRoughness": {
        "baseColorTexture": {
          "index": 7
        },
        "metallicFactor": 0.0,
        "roughnessFactor": 0.6
      }
    }
  ],
  "meshes": [
    {
      "name": "Object_0",
      "primitives": [
        {
          "attributes": {
            "NORMAL": 1,
            "POSITION": 0,
            "TEXCOORD_0": 2
          },
          "indices": 3,
          "material": 0,
          "mode": 4
        }
      ]
    },
    {
      "name": "Object_1",
      "primitives": [
        {
          "attributes": {
            "NORMAL": 5,
            "POSITION": 4,
            "TEXCOORD_0": 6
          },
          "indices": 7,
          "material": 1,
          "mode": 4
        }
      ]
    },
    {
      "name": "Object_2",
      "primitives": [
        {
          "attributes": {
            "NORMAL": 9,
            "POSITION": 8,
            "TEXCOORD_0": 10
          },
          "indices": 11,
          "material": 2,
          "mode": 4
        }
      ]
    },
    {
      "name": "Object_3",
      "primitives": [
        {
          "attributes": {
            "NORMAL": 13,
            "POSITION": 12,
            "TEXCOORD_0": 14
          },
          "indices": 15,
          "material": 3,
          "mode": 4
        }
      ]
    },
    {
      "name": "Object_4",
      "primitives": [
        {
          "attributes": {
            "NORMAL": 17,
            "POSITION": 16,
            "TEXCOORD_0": 18
          },
          "indices": 19,
          "material": 4,
          "mode": 4
        }
      ]
    },
    {
      "name": "Object_5",
      "primitives": [
        {
          "attributes": {
            "NORMAL": 21,
            "POSITION": 20,
            "TEXCOORD_0": 22
          },
          "indices": 23,
          "material": 5,
          "mode": 4
        }
      ]
    },
    {
      "name": "Object_6",
      "primitives": [
        {
          "attributes": {
            "NORMAL": 25,
            "POSITION": 24,
            "TEXCOORD_0": 26
          },
          "indices": 27,
          "material": 6,
          "mode": 4
        }
      ]
    },
    {
      "name": "Object_7",
      "primitives": [
        {
          "attributes": {
            "NORMAL": 29,
            "POSITION": 28,
            "TEXCOORD_0": 30
          },
          "indices": 31,
          "material": 7,
          "mode": 4
        }
      ]
    }
  ],
  "nodes": [
    {
      "children": [
        1
      ],
      "matrix": [
        1.0,
        0.0,
        0.0,
        0.0,
        0.0,
        2.220446049250313e-16,
        -1.0,
        0.0,
        0.0,
        1.0,
        2.220446049250313e-16,
        0.0,
        0.0,
        0.0,
        0.0,
        1.0
      ],
      "name": "Sketchfab_model"
    },
    {
      "children": [
        2
      ],
      "matrix": [
        1.0,
        0.0,
        0.0,
        0.0,
        0.0,
        1.0,
        0.0,
        0.0,
        0.0,
        0.0,
        1.0,
        0.0,
        -8.585599899291992,
        -15.829099655151367,
        0.04619999974966049,
        1.0
      ],
      "name": "kaktus_collection.obj.cleaner.gles"
    },
    {
      "children": [
        3,
        4,
        5,
        6,
        7,
        8,
        9,
        10
      ],
      "name": "Object_2"
    },
    {
      "mesh": 0,
      "name": "Object_3"
    },
    {
      "mesh": 1,
      "name": "Object_4"
    },
    {
      "mesh": 2,
      "name": "Object_5"
    },
    {
      "mesh": 3,
      "name": "Object_6"
    },
    {
      "mesh": 4,
      "name": "Object_7"
    },
    {
      "mesh": 5,
      "name": "Object_8"
    },
    {
      "mesh": 6,
      "name": "Object_9"
    },
    {
      "mesh": 7,
      "name": "Object_10"
    }
  ],
  "samplers": [
    {
      "magFilter": 9729,
      "minFilter": 9987,
      "wrapS": 10497,
      "wrapT": 10497
    }
  ],
  "scene": 0,
  "scenes": [
    {
      "name": "Sketchfab_Scene",
      "nodes": [
        0
      ]
    }
  ],
  "textures": [
    {
      "sampler": 0,
      "source": 0
    },
    {
      "sampler": 0,
      "source": 1
    },
    {
      "sampler": 0,
      "source": 2
    },
    {
      "sampler": 0,
      "source": 3
    },
    {
      "sampler": 0,
      "source": 4
    },
    {
      "sampler": 0,
      "source": 5
    },
    {
      "sampler": 0,
      "source": 6
    },
    {
      "sampler": 0,
      "source": 7
    }
  ]
}
